<svg width="64" height="104" viewBox="0 0 64 104" fill="none" xmlns="http://www.w3.org/2000/svg">
<g clip-path="url(#clip0_529_757)">
<rect width="64" height="64" fill="#E4F7F9"/>
<rect x="8" y="8" width="48" height="48" rx="24" fill="#244FC3"/>
<path opacity="0.7" fill-rule="evenodd" clip-rule="evenodd" d="M35.8445 47.6364L43.5 46.5599V41.1771L29.3852 27.0623V17.2537H19.5766V19.5264L18.5 22.7561L19.5766 23.713V27.0623L21.8493 29.2154V30.4116L24.0024 33.6412V34.7178L27.2321 39.024V42.134H30.4617L35.8445 45.4833V47.6364ZM30.5817 43.9919H27.2324V45.1881H30.5817V43.9919ZM30.3419 46.3842H31.5381V47.5804H30.3419V46.3842ZM32.7344 45.1879H31.5382V46.3841H32.7344V45.1879Z" fill="white"/>
<mask id="path-3-outside-1_529_757" maskUnits="userSpaceOnUse" x="28" y="18.5715" width="14" height="16" fill="black">
<rect fill="white" x="28" y="18.5715" width="14" height="16"/>
<path fill-rule="evenodd" clip-rule="evenodd" d="M32.1422 23.4287C32.1422 21.8507 33.4213 20.5715 34.9993 20.5715C36.5773 20.5715 37.8564 21.8507 37.8564 23.4287V24.8573H39.2857C39.6802 24.8573 40 25.1771 40 25.5716V32.7144C40 33.1089 39.6802 33.4287 39.2857 33.4287H30.7143C30.3198 33.4287 30 33.1089 30 32.7144V25.5716C30 25.1771 30.3198 24.8573 30.7143 24.8573H32.1422V23.4287ZM36.4279 23.4287V24.8573H33.5707V23.4287C33.5707 22.6397 34.2103 22.0001 34.9993 22.0001C35.7883 22.0001 36.4279 22.6397 36.4279 23.4287ZM32.3208 29.8142L31.8483 29.2786L32.9195 28.3334L33.392 28.869L34.292 29.889L36.6396 27.5642L37.1471 27.0616L38.1523 28.0767L37.6448 28.5793L35.0284 31.1703C34.5908 31.6037 33.8786 31.5797 33.4711 31.1178L32.3208 29.8142Z"/>
</mask>
<path fill-rule="evenodd" clip-rule="evenodd" d="M32.1422 23.4287C32.1422 21.8507 33.4213 20.5715 34.9993 20.5715C36.5773 20.5715 37.8564 21.8507 37.8564 23.4287V24.8573H39.2857C39.6802 24.8573 40 25.1771 40 25.5716V32.7144C40 33.1089 39.6802 33.4287 39.2857 33.4287H30.7143C30.3198 33.4287 30 33.1089 30 32.7144V25.5716C30 25.1771 30.3198 24.8573 30.7143 24.8573H32.1422V23.4287ZM36.4279 23.4287V24.8573H33.5707V23.4287C33.5707 22.6397 34.2103 22.0001 34.9993 22.0001C35.7883 22.0001 36.4279 22.6397 36.4279 23.4287ZM32.3208 29.8142L31.8483 29.2786L32.9195 28.3334L33.392 28.869L34.292 29.889L36.6396 27.5642L37.1471 27.0616L38.1523 28.0767L37.6448 28.5793L35.0284 31.1703C34.5908 31.6037 33.8786 31.5797 33.4711 31.1178L32.3208 29.8142Z" fill="white"/>
<path d="M37.8564 24.8573H36.785V25.9287H37.8564V24.8573ZM32.1422 24.8573V25.9287H33.2136V24.8573H32.1422ZM36.4279 24.8573V25.9287H37.4993V24.8573H36.4279ZM33.5707 24.8573H32.4993V25.9287H33.5707V24.8573ZM31.8483 29.2786L31.1394 28.4752L30.336 29.1841L31.0449 29.9875L31.8483 29.2786ZM32.3208 29.8142L33.1242 29.1053L32.3208 29.8142ZM32.9195 28.3334L33.7229 27.6246L33.014 26.8212L32.2106 27.53L32.9195 28.3334ZM33.392 28.869L32.5886 29.5779H32.5886L33.392 28.869ZM34.292 29.889L33.4886 30.5979L34.2395 31.4489L35.0459 30.6503L34.292 29.889ZM36.6396 27.5642L35.8856 26.8029L35.8856 26.8029L36.6396 27.5642ZM37.1471 27.0616L37.9084 26.3077L37.1545 25.5464L36.3932 26.3003L37.1471 27.0616ZM38.1523 28.0767L38.9062 28.838L39.6675 28.0841L38.9136 27.3228L38.1523 28.0767ZM37.6448 28.5793L38.3987 29.3406H38.3987L37.6448 28.5793ZM35.0284 31.1703L34.2745 30.409H34.2745L35.0284 31.1703ZM33.4711 31.1178L32.6677 31.8267L32.6677 31.8267L33.4711 31.1178ZM34.9993 19.5001C32.8296 19.5001 31.0707 21.259 31.0707 23.4287H33.2136C33.2136 22.4425 34.0131 21.643 34.9993 21.643V19.5001ZM38.9279 23.4287C38.9279 21.259 37.169 19.5001 34.9993 19.5001V21.643C35.9855 21.643 36.785 22.4425 36.785 23.4287H38.9279ZM38.9279 24.8573V23.4287H36.785V24.8573H38.9279ZM39.2857 23.7859H37.8564V25.9287H39.2857V23.7859ZM41.0714 25.5716C41.0714 24.5854 40.2719 23.7859 39.2857 23.7859V25.9287C39.0885 25.9287 38.9286 25.7688 38.9286 25.5716H41.0714ZM41.0714 32.7144V25.5716H38.9286V32.7144H41.0714ZM39.2857 34.5002C40.2719 34.5002 41.0714 33.7007 41.0714 32.7144H38.9286C38.9286 32.5172 39.0885 32.3573 39.2857 32.3573V34.5002ZM30.7143 34.5002H39.2857V32.3573H30.7143V34.5002ZM28.9286 32.7144C28.9286 33.7007 29.7281 34.5002 30.7143 34.5002V32.3573C30.9115 32.3573 31.0714 32.5172 31.0714 32.7144H28.9286ZM28.9286 25.5716V32.7144H31.0714V25.5716H28.9286ZM30.7143 23.7859C29.7281 23.7859 28.9286 24.5854 28.9286 25.5716H31.0714C31.0714 25.7688 30.9115 25.9287 30.7143 25.9287V23.7859ZM32.1422 23.7859H30.7143V25.9287H32.1422V23.7859ZM31.0707 23.4287V24.8573H33.2136V23.4287H31.0707ZM37.4993 24.8573V23.4287H35.3564V24.8573H37.4993ZM33.5707 25.9287H36.4279V23.7859H33.5707V25.9287ZM32.4993 23.4287V24.8573H34.6422V23.4287H32.4993ZM34.9993 20.9287C33.6186 20.9287 32.4993 22.048 32.4993 23.4287H34.6422C34.6422 23.2314 34.8021 23.0715 34.9993 23.0715V20.9287ZM37.4993 23.4287C37.4993 22.048 36.38 20.9287 34.9993 20.9287V23.0715C35.1965 23.0715 35.3564 23.2314 35.3564 23.4287H37.4993ZM31.0449 29.9875L31.5174 30.5231L33.1242 29.1053L32.6517 28.5697L31.0449 29.9875ZM32.2106 27.53L31.1394 28.4752L32.5571 30.082L33.6283 29.1368L32.2106 27.53ZM34.1954 28.1602L33.7229 27.6246L32.1161 29.0423L32.5886 29.5779L34.1954 28.1602ZM35.0954 29.1801L34.1954 28.1602L32.5886 29.5779L33.4886 30.5979L35.0954 29.1801ZM35.8856 26.8029L33.5381 29.1277L35.0459 30.6503L37.3935 28.3255L35.8856 26.8029ZM36.3932 26.3003L35.8856 26.8029L37.3935 28.3255L37.901 27.8229L36.3932 26.3003ZM38.9136 27.3228L37.9084 26.3077L36.3858 27.8155L37.391 28.8306L38.9136 27.3228ZM38.3987 29.3406L38.9062 28.838L37.3984 27.3154L36.8909 27.818L38.3987 29.3406ZM35.7823 31.9316L38.3987 29.3406L36.8909 27.818L34.2745 30.409L35.7823 31.9316ZM32.6677 31.8267C33.4828 32.7505 34.907 32.7984 35.7823 31.9316L34.2745 30.409H34.2745L32.6677 31.8267ZM31.5174 30.5231L32.6677 31.8267L34.2745 30.409L33.1242 29.1053L31.5174 30.5231Z" fill="#244FC3" mask="url(#path-3-outside-1_529_757)"/>
<rect width="64" height="40" transform="translate(0 64)" fill="white"/>
<path d="M19.2361 84.112C16.6461 84.112 14.3641 82.418 14.3641 79.1C14.3641 75.782 16.6881 74.088 19.2361 74.088C21.5881 74.088 23.2541 75.376 23.5901 77.35L21.7001 77.742C21.4481 76.496 20.4961 75.726 19.2361 75.726C17.5841 75.726 16.2961 76.902 16.2961 79.1C16.2961 81.298 17.5701 82.46 19.2361 82.46C20.5101 82.46 21.3921 81.76 21.6441 80.612L23.5621 81.032C23.0861 82.95 21.4901 84.112 19.2361 84.112ZM29.1827 84.112C26.5927 84.112 24.3107 82.418 24.3107 79.1C24.3107 75.782 26.6347 74.088 29.1827 74.088C31.5347 74.088 33.2007 75.376 33.5367 77.35L31.6467 77.742C31.3947 76.496 30.4427 75.726 29.1827 75.726C27.5307 75.726 26.2427 76.902 26.2427 79.1C26.2427 81.298 27.5167 82.46 29.1827 82.46C30.4567 82.46 31.3387 81.76 31.5907 80.612L33.5087 81.032C33.0327 82.95 31.4367 84.112 29.1827 84.112ZM34.4865 84V74.2H38.4345C40.4225 74.2 41.6965 75.376 41.6965 77.196C41.6965 79.002 40.4225 80.178 38.4345 80.178H36.3905V84H34.4865ZM36.3905 78.54H38.2665C39.2185 78.54 39.7925 78.036 39.7925 77.196C39.7925 76.342 39.2185 75.838 38.2665 75.838H36.3905V78.54ZM45.3839 76.692L44.0819 80.22H46.6859L45.3839 76.692ZM40.7219 84L44.4879 74.2H46.2659L50.0319 84H48.0719L47.2739 81.83H43.4799L42.6819 84H40.7219Z" fill="#001F1F"/>
<path d="M12.3365 95.056C11.0415 95.056 9.90051 94.209 9.90051 92.55C9.90051 90.891 11.0625 90.044 12.3365 90.044C13.5125 90.044 14.3455 90.688 14.5135 91.675L13.5685 91.871C13.4425 91.248 12.9665 90.863 12.3365 90.863C11.5105 90.863 10.8665 91.451 10.8665 92.55C10.8665 93.649 11.5035 94.23 12.3365 94.23C12.9735 94.23 13.4145 93.88 13.5405 93.306L14.4995 93.516C14.2615 94.475 13.4635 95.056 12.3365 95.056ZM18.0588 95.056C16.6238 95.056 15.5738 93.999 15.5738 92.55C15.5738 91.101 16.6238 90.044 18.0588 90.044C19.4868 90.044 20.5368 91.101 20.5368 92.55C20.5368 93.999 19.4868 95.056 18.0588 95.056ZM16.5328 92.55C16.5328 93.523 17.1698 94.23 18.0588 94.23C18.9478 94.23 19.5778 93.523 19.5778 92.55C19.5778 91.577 18.9478 90.863 18.0588 90.863C17.1698 90.863 16.5328 91.577 16.5328 92.55ZM21.8059 95V90.1H22.8769L24.3749 93.649L25.8729 90.1H26.9439V95H26.0479V91.871L24.7319 95H24.0179L22.7019 91.871V95H21.8059ZM28.4363 95V90.1H30.4103C31.4043 90.1 32.0413 90.688 32.0413 91.598C32.0413 92.501 31.4043 93.089 30.4103 93.089H29.3883V95H28.4363ZM29.3883 92.27H30.3263C30.8023 92.27 31.0893 92.018 31.0893 91.598C31.0893 91.171 30.8023 90.919 30.3263 90.919H29.3883V92.27ZM33.2003 95V90.1H34.1523V94.174H36.4273V95H33.2003ZM37.5337 95V90.1H38.4857V95H37.5337ZM41.8848 91.346L41.2338 93.11H42.5358L41.8848 91.346ZM39.5538 95L41.4368 90.1H42.3258L44.2088 95H43.2288L42.8298 93.915H40.9328L40.5338 95H39.5538ZM45.2367 95V90.1H46.2027L48.3027 93.502V90.1H49.1917V95H48.2257L46.1327 91.605V95H45.2367ZM51.8114 95V90.919H50.3344V90.1H54.2404V90.919H52.7634V95H51.8114Z" fill="#6A7878"/>
</g>
<defs>
<clipPath id="clip0_529_757">
<rect width="64" height="104" fill="white"/>
</clipPath>
</defs>
</svg>
