<svg width="64" height="104" viewBox="0 0 64 104" fill="none" xmlns="http://www.w3.org/2000/svg">
<g clip-path="url(#clip0_801_319)">
<rect width="64" height="64" fill="#E4F7F9"/>
<circle cx="32" cy="32" r="24" fill="#244FC3"/>
<path d="M32.004 31.0208C28.5726 31.0208 25.7341 30.1438 25.2771 29.0024C25.2351 28.8962 25.2129 28.9357 25.2129 29.0024V30.8478C25.2129 32.1398 28.2539 33.1898 32.004 33.1898C35.754 33.1898 38.7951 32.1423 38.7951 30.8478V29C38.7951 28.9679 38.7729 28.8962 38.7284 29.0049C38.2664 30.1438 35.4329 31.0208 32.004 31.0208Z" fill="white"/>
<path d="M32.004 37.832C28.5726 37.832 25.7341 36.955 25.2771 35.8137C25.2351 35.7075 25.2129 35.747 25.2129 35.8137V37.6591C25.2129 38.9511 28.2539 40.001 32.004 40.001C35.754 40.001 38.7951 38.9536 38.7951 37.6591V35.8113C38.7951 35.7791 38.7729 35.7075 38.7284 35.8162C38.2664 36.955 35.4329 37.832 32.004 37.832Z" fill="white"/>
<path d="M32.004 34.4253C28.5726 34.4253 25.7341 33.5483 25.2771 32.407C25.2351 32.3008 25.2129 32.3403 25.2129 32.407V34.2524C25.2129 35.5444 28.2539 36.5943 32.004 36.5943C35.754 36.5943 38.7951 35.5468 38.7951 34.2524V32.4045C38.7951 32.3724 38.7729 32.3008 38.7284 32.4095C38.2664 33.5483 35.4329 34.4253 32.004 34.4253Z" fill="white"/>
<path d="M32.004 24.2295C28.2539 24.2295 25.2129 25.2769 25.2129 26.5714V27.5077C25.2129 28.7997 28.2539 29.8496 32.004 29.8496C35.754 29.8496 38.7951 28.8022 38.7951 27.5077V26.5714C38.7951 25.2794 35.754 24.2295 32.004 24.2295Z" fill="white"/>
<path d="M47.9679 21.3462C48.0541 21.0808 48.4295 21.0808 48.5157 21.3462L48.7752 22.145C48.8138 22.2637 48.9244 22.344 49.0491 22.344H49.8891C50.1681 22.344 50.2841 22.7011 50.0584 22.865L49.3788 23.3588C49.2779 23.4321 49.2357 23.5621 49.2742 23.6808L49.5338 24.4796C49.62 24.745 49.3163 24.9656 49.0906 24.8016L48.411 24.3079C48.3101 24.2346 48.1734 24.2346 48.0725 24.3079L47.3929 24.8016C47.1672 24.9656 46.8635 24.745 46.9497 24.4796L47.2093 23.6808C47.2479 23.5621 47.2056 23.4321 47.1047 23.3588L46.4251 22.865C46.1994 22.7011 46.3154 22.344 46.5944 22.344H47.4344C47.5592 22.344 47.6697 22.2637 47.7083 22.145L47.9679 21.3462Z" fill="#FFC248"/>
<path d="M50.0328 29.5654C50.119 29.3001 50.4944 29.3001 50.5806 29.5654L50.8402 30.3643C50.8787 30.4829 50.9893 30.5633 51.1141 30.5633H51.9541C52.2331 30.5633 52.3491 30.9203 52.1234 31.0843L51.4438 31.578C51.3429 31.6513 51.3006 31.7813 51.3392 31.9L51.5987 32.6989C51.685 32.9642 51.3813 33.1849 51.1556 33.0209L50.476 32.5271C50.375 32.4538 50.2384 32.4538 50.1374 32.5271L49.4579 33.0209C49.2322 33.1849 48.9285 32.9642 49.0147 32.6989L49.2742 31.9C49.3128 31.7813 49.2706 31.6513 49.1696 31.578L48.4901 31.0843C48.2644 30.9203 48.3804 30.5633 48.6593 30.5633H49.4993C49.6241 30.5633 49.7347 30.4829 49.7732 30.3643L50.0328 29.5654Z" fill="#FFC248"/>
<path d="M15.5372 21.3462C15.6234 21.0808 15.9988 21.0808 16.085 21.3462L16.3446 22.145C16.3831 22.2637 16.4937 22.344 16.6185 22.344H17.4585C17.7375 22.344 17.8535 22.7011 17.6277 22.865L16.9482 23.3588C16.8472 23.4321 16.805 23.5621 16.8436 23.6808L17.1031 24.4796C17.1893 24.745 16.8857 24.9656 16.6599 24.8016L15.9804 24.3079C15.8794 24.2346 15.7428 24.2346 15.6418 24.3079L14.9623 24.8016C14.7365 24.9656 14.4329 24.745 14.5191 24.4796L14.7786 23.6808C14.8172 23.5621 14.775 23.4321 14.674 23.3588L13.9945 22.865C13.7687 22.7011 13.8847 22.344 14.1637 22.344H15.0037C15.1285 22.344 15.2391 22.2637 15.2776 22.145L15.5372 21.3462Z" fill="#FFC248"/>
<path d="M20.9283 15.7302C21.0145 15.4649 21.3899 15.4649 21.4761 15.7302L21.7357 16.5291C21.7742 16.6477 21.8848 16.7281 22.0096 16.7281H22.8496C23.1286 16.7281 23.2446 17.0851 23.0189 17.2491L22.3393 17.7428C22.2384 17.8161 22.1961 17.9461 22.2347 18.0648L22.4942 18.8637C22.5805 19.129 22.2768 19.3497 22.0511 19.1857L21.3715 18.6919C21.2706 18.6186 21.1339 18.6186 21.0329 18.6919L20.3534 19.1857C20.1277 19.3497 19.824 19.129 19.9102 18.8637L20.1698 18.0648C20.2083 17.9461 20.1661 17.8161 20.0651 17.7428L19.3856 17.2491C19.1599 17.0851 19.2759 16.7281 19.5549 16.7281H20.3948C20.5196 16.7281 20.6302 16.6477 20.6687 16.5291L20.9283 15.7302Z" fill="#FFC248"/>
<path d="M42.5191 15.7302C42.6053 15.4649 42.9807 15.4649 43.0669 15.7302L43.3265 16.5291C43.3651 16.6477 43.4756 16.7281 43.6004 16.7281H44.4404C44.7194 16.7281 44.8354 17.0851 44.6097 17.2491L43.9301 17.7428C43.8292 17.8161 43.7869 17.9461 43.8255 18.0648L44.0851 18.8637C44.1713 19.129 43.8676 19.3497 43.6419 19.1857L42.9623 18.6919C42.8614 18.6186 42.7247 18.6186 42.6238 18.6919L41.9442 19.1857C41.7185 19.3497 41.4148 19.129 41.501 18.8637L41.7606 18.0648C41.7991 17.9461 41.7569 17.8161 41.656 17.7428L40.9764 17.2491C40.7507 17.0851 40.8667 16.7281 41.1457 16.7281H41.9857C42.1104 16.7281 42.221 16.6477 42.2596 16.5291L42.5191 15.7302Z" fill="#FFC248"/>
<path d="M12.9923 29.5654C13.0785 29.3001 13.4539 29.3001 13.5401 29.5654L13.7997 30.3643C13.8382 30.4829 13.9488 30.5633 14.0736 30.5633H14.9135C15.1925 30.5633 15.3085 30.9203 15.0828 31.0843L14.4033 31.578C14.3023 31.6513 14.2601 31.7813 14.2986 31.9L14.5582 32.6989C14.6444 32.9642 14.3407 33.1849 14.115 33.0209L13.4355 32.5271C13.3345 32.4538 13.1978 32.4538 13.0969 32.5271L12.4173 33.0209C12.1916 33.1849 11.8879 32.9642 11.9741 32.6989L12.2337 31.9C12.2723 31.7813 12.23 31.6513 12.1291 31.578L11.4495 31.0843C11.2238 30.9203 11.3398 30.5633 11.6188 30.5633H12.4588C12.5836 30.5633 12.6941 30.4829 12.7327 30.3643L12.9923 29.5654Z" fill="#FFC248"/>
<path d="M27.4712 18.0623V12.9653H30.9735V13.9483H28.6216V14.8803H30.4857V15.8706H28.6216V17.072H31.0536V18.0623H27.4712Z" fill="white"/>
<path d="M34.5846 18.1205C33.3759 18.1205 32.5386 17.4725 32.5386 16.1691V12.9653H33.6089V16.1619C33.6089 16.8245 34.0167 17.123 34.5846 17.123C35.1526 17.123 35.5603 16.8245 35.5603 16.1619V12.9653H36.6307V16.1691C36.6307 17.4725 35.7933 18.1205 34.5846 18.1205Z" fill="white"/>
<path d="M13.5953 37.9236L16.6144 36.7498L17.0152 37.7806C17.3372 38.6087 17.1495 39.5307 16.1143 39.9332C15.0792 40.3356 14.318 39.7825 13.996 38.9544L13.5953 37.9236ZM14.4418 38.364L14.5541 38.653C14.7436 39.1404 15.149 39.519 15.8477 39.2474C16.5464 38.9757 16.5939 38.421 16.4044 37.9336L16.2921 37.6447L14.4418 38.364Z" fill="white"/>
<path d="M18.1452 41.9997L17.1182 42.2837L17.5269 42.8675L18.1452 41.9997ZM15.3739 42.0192L18.7309 41.166L19.1263 41.7308L17.176 44.5932L16.7434 43.9753L17.1539 43.3998L16.4904 42.4521L15.8092 42.6409L15.3739 42.0192Z" fill="white"/>
<path d="M18.9716 46.4352L20.7216 44.4927L20.0134 43.8546L20.4316 43.3905L22.3878 45.153L21.9697 45.6171L21.2649 44.9821L19.5148 46.9246L18.9716 46.4352Z" fill="white"/>
<path d="M23.9347 47.2582L23.1358 47.9633L23.7589 48.3091L23.9347 47.2582ZM21.4519 48.4895L24.0961 46.2522L24.699 46.5868L24.1993 50.0142L23.5397 49.6482L23.6567 48.951L22.6452 48.3896L22.1155 48.8577L21.4519 48.4895Z" fill="white"/>
<path d="M30.8868 48.4593L31.616 48.5571L31.1854 51.7677L30.4562 51.6699L30.6364 50.3261L29.3613 50.155L29.1811 51.4989L28.4564 51.4017L28.8871 48.1911L29.6117 48.2883L29.4444 49.5358L30.7195 49.7069L30.8868 48.4593Z" fill="white"/>
<path d="M34.6922 51.668C33.7366 51.7832 32.954 51.1691 32.8399 50.2226C32.7258 49.2762 33.3399 48.4936 34.2955 48.3784C35.242 48.2643 36.0245 48.8784 36.1386 49.8249C36.2528 50.7713 35.6386 51.5538 34.6922 51.668ZM33.5658 50.1351C33.6367 50.7232 34.0701 51.1091 34.6122 51.0437C35.1498 50.9789 35.4836 50.5005 35.4127 49.9124C35.3418 49.3243 34.9033 48.9344 34.3657 48.9992C33.8236 49.0646 33.4949 49.547 33.5658 50.1351Z" fill="white"/>
<path d="M39.3452 50.5481C38.7389 50.7764 38.073 50.5573 37.808 50.0241L38.3388 49.6216C38.505 49.9447 38.8539 50.0705 39.1528 49.958C39.4256 49.8553 39.5543 49.6585 39.4825 49.468C39.2674 48.8963 37.8397 49.8193 37.4207 48.7063C37.2333 48.2082 37.576 47.6738 38.1693 47.4504C38.754 47.2303 39.3435 47.3645 39.6218 47.7888L39.1074 48.2742C38.944 48.0241 38.6736 47.9232 38.3878 48.0308C38.1496 48.1204 38.0398 48.2755 38.1034 48.4444C38.2844 48.9251 39.6984 47.9528 40.1647 49.1914C40.3717 49.7415 40.0425 50.2857 39.3452 50.5481Z" fill="white"/>
<path d="M42.7838 48.8269L41.3656 46.6304L40.5647 47.1475L40.2258 46.6227L42.4379 45.1944L42.7768 45.7192L41.9798 46.2338L43.3981 48.4303L42.7838 48.8269Z" fill="white"/>
<path d="M45.5544 46.7622L43.3385 44.3993L43.8718 43.8992L46.0877 46.262L45.5544 46.7622Z" fill="white"/>
<path d="M47.6057 44.6989L44.9771 42.8058L45.4017 42.2163L47.8271 42.4118L46.1372 41.1949L46.5348 40.6429L49.1634 42.5359L48.7388 43.1255L46.3134 42.9299L48.0033 44.1469L47.6057 44.6989Z" fill="white"/>
<path d="M50.753 39.3918C50.4477 40.1619 49.6527 40.673 48.6245 40.2654C47.5964 39.8577 47.3761 38.9192 47.6933 38.119C47.9918 37.3662 48.5854 36.9992 49.2707 37.1414L49.1423 37.8671C48.7622 37.7961 48.4191 37.9836 48.2707 38.3579C48.0728 38.8569 48.2874 39.3452 48.894 39.5857C49.5006 39.8262 49.9872 39.6159 50.1816 39.1255C50.3402 38.7254 50.2291 38.3528 49.9218 38.1861L49.5977 39.0035L49.0557 38.7886L49.6288 37.3432L51.2678 37.993L51.0222 38.6125L50.7081 38.4879C50.8695 38.6963 50.886 39.0563 50.753 39.3918Z" fill="white"/>
<rect width="64" height="40" transform="translate(0 64)" fill="white"/>
<path d="M24.2388 84V74.2H30.7908V75.838H26.1428V77.994H29.8668V79.646H26.1428V82.348H30.9448V84H24.2388ZM35.9029 84.112C33.6069 84.112 32.0389 82.852 32.0389 80.444V74.2H33.8309V80.458C33.8309 81.788 34.6849 82.446 35.9029 82.446C37.1349 82.446 37.9889 81.788 37.9889 80.458V74.2H39.7669V80.444C39.7669 82.852 38.1989 84.112 35.9029 84.112Z" fill="#001F1F"/>
<path d="M4.81364 95V90.1H6.41664C7.76764 90.1 8.92964 90.905 8.92964 92.55C8.92964 94.195 7.76764 95 6.41664 95H4.81364ZM5.75164 94.174H6.33264C7.17264 94.174 7.96364 93.747 7.96364 92.55C7.96364 91.353 7.17264 90.919 6.33264 90.919H5.75164V94.174ZM11.9127 91.346L11.2617 93.11H12.5637L11.9127 91.346ZM9.58173 95L11.4647 90.1H12.3537L14.2367 95H13.2567L12.8577 93.915H10.9607L10.5617 95H9.58173ZM15.7833 95V90.919H14.3063V90.1H18.2123V90.919H16.7353V95H15.7833ZM20.607 91.346L19.956 93.11H21.258L20.607 91.346ZM18.276 95L20.159 90.1H21.048L22.931 95H21.951L21.552 93.915H19.655L19.256 95H18.276ZM29.3426 90.1H30.2946V95H29.3426V92.865H27.1936V95H26.2416V90.1H27.1936V92.046H29.3426V90.1ZM34.0461 95.056C32.6111 95.056 31.5611 93.999 31.5611 92.55C31.5611 91.101 32.6111 90.044 34.0461 90.044C35.4741 90.044 36.5241 91.101 36.5241 92.55C36.5241 93.999 35.4741 95.056 34.0461 95.056ZM32.5201 92.55C32.5201 93.523 33.1571 94.23 34.0461 94.23C34.9351 94.23 35.5651 93.523 35.5651 92.55C35.5651 91.577 34.9351 90.863 34.0461 90.863C33.1571 90.863 32.5201 91.577 32.5201 92.55ZM39.4032 95.056C38.4372 95.056 37.6322 94.405 37.5132 93.516L38.3602 93.257C38.4372 93.845 38.8922 94.244 39.4382 94.244C39.9492 94.244 40.2852 93.999 40.2852 93.628C40.2852 92.571 37.6882 93.166 37.6882 91.388C37.6882 90.604 38.4232 90.044 39.3892 90.044C40.3202 90.044 41.0552 90.541 41.2092 91.283L40.3552 91.633C40.2572 91.157 39.9002 90.856 39.3892 90.856C38.9202 90.856 38.6332 91.059 38.6332 91.388C38.6332 92.277 41.2512 91.619 41.2512 93.607C41.2512 94.475 40.5092 95.056 39.4032 95.056ZM43.4929 95V90.919H42.0159V90.1H45.9219V90.919H44.4449V95H43.4929ZM46.9659 95V90.1H47.9179V95H46.9659ZM49.399 95V90.1H50.365L52.465 93.502V90.1H53.354V95H52.388L50.295 91.605V95H49.399ZM57.0307 95.056C55.7847 95.056 54.6297 94.223 54.6297 92.55C54.6297 90.877 55.8127 90.044 57.0937 90.044C58.2697 90.044 59.1027 90.66 59.2917 91.675L58.3537 91.871C58.2347 91.255 57.7447 90.863 57.0867 90.863C56.2117 90.863 55.5887 91.479 55.5887 92.55C55.5887 93.621 56.2117 94.23 57.0727 94.23C57.8147 94.23 58.3117 93.789 58.3607 93.152H56.9047V92.382H59.2427V95H58.3817V94.405C58.1647 94.804 57.6257 95.056 57.0307 95.056Z" fill="#6A7878"/>
</g>
<defs>
<clipPath id="clip0_801_319">
<rect width="64" height="104" fill="white"/>
</clipPath>
</defs>
</svg>
