<svg width="64" height="104" viewBox="0 0 64 104" fill="none" xmlns="http://www.w3.org/2000/svg">
<g clip-path="url(#clip0_529_734)">
<rect width="64" height="64" fill="#E4F7F9"/>
<path d="M53.1765 31.9999C53.1765 43.6953 43.6955 53.1763 32 53.1763C20.3045 53.1763 10.8235 43.6953 10.8235 31.9999C10.8235 20.3045 20.3045 10.8235 32 10.8235C43.6955 10.8235 53.1765 20.3045 53.1765 31.9999Z" fill="url(#paint0_linear_529_734)" stroke="url(#paint1_linear_529_734)" stroke-width="5.64705"/>
<path d="M24.801 28.7058C24.7418 28.7058 24.7022 28.6795 24.6825 28.6268L24.2575 27.3124C24.2509 27.2926 24.2378 27.2828 24.218 27.2828H21.1347C21.1149 27.2828 21.1018 27.2926 21.0952 27.3124L20.6801 28.6268C20.6603 28.6795 20.6208 28.7058 20.5615 28.7058H20.2156C20.1432 28.7058 20.1168 28.6696 20.1366 28.5971L22.3305 21.8672C22.3502 21.8145 22.3898 21.7882 22.4491 21.7882H22.8938C22.9531 21.7882 22.9926 21.8145 23.0123 21.8672L25.2161 28.5971L25.226 28.6366C25.226 28.6828 25.1963 28.7058 25.137 28.7058H24.801ZM21.2533 26.7985C21.2467 26.8117 21.2467 26.8249 21.2533 26.838C21.2665 26.8446 21.2796 26.8479 21.2928 26.8479H24.0599C24.073 26.8479 24.0829 26.8446 24.0895 26.838C24.1027 26.8249 24.106 26.8117 24.0994 26.7985L22.706 22.4997C22.6994 22.4865 22.6895 22.4799 22.6763 22.4799C22.6632 22.4799 22.6533 22.4865 22.6467 22.4997L21.2533 26.7985ZM26.6969 28.7058C26.631 28.7058 26.5981 28.6729 26.5981 28.607V21.887C26.5981 21.8211 26.631 21.7882 26.6969 21.7882H27.023C27.0889 21.7882 27.1219 21.8211 27.1219 21.887V28.607C27.1219 28.6729 27.0889 28.7058 27.023 28.7058H26.6969ZM31.1816 28.7948C30.7336 28.7948 30.3383 28.7058 29.9958 28.5279C29.6532 28.35 29.3863 28.0997 29.1953 27.7769C29.0108 27.4475 28.9186 27.0719 28.9186 26.6503V23.8338C28.9186 23.4122 29.0108 23.0432 29.1953 22.727C29.3863 22.4042 29.6532 22.1538 29.9958 21.9759C30.3383 21.7981 30.7336 21.7091 31.1816 21.7091C31.623 21.7091 32.015 21.7981 32.3576 21.9759C32.7002 22.1472 32.9638 22.391 33.1482 22.7072C33.3393 23.0235 33.4348 23.3891 33.4348 23.8042V23.8141C33.4348 23.847 33.4249 23.8733 33.4052 23.8931C33.3854 23.9129 33.3623 23.9228 33.336 23.9228L33.0099 23.9425C32.944 23.9425 32.911 23.9096 32.911 23.8437V23.8141C32.911 23.3199 32.7529 22.9246 32.4367 22.6282C32.1205 22.3251 31.7021 22.1736 31.1816 22.1736C30.6546 22.1736 30.2329 22.3251 29.9167 22.6282C29.6005 22.9246 29.4423 23.3199 29.4423 23.8141V26.6799C29.4423 27.174 29.6005 27.5726 29.9167 27.8757C30.2395 28.1788 30.6612 28.3303 31.1816 28.3303C31.7021 28.3303 32.1205 28.1788 32.4367 27.8757C32.7529 27.5726 32.911 27.174 32.911 26.6799V26.6602C32.911 26.6009 32.944 26.5712 33.0099 26.5712L33.336 26.591C33.4019 26.591 33.4348 26.6206 33.4348 26.6799C33.4348 27.095 33.3393 27.4639 33.1482 27.7868C32.9638 28.103 32.7002 28.35 32.3576 28.5279C32.015 28.7058 31.623 28.7948 31.1816 28.7948ZM37.718 21.7684C38.278 21.7684 38.7293 21.943 39.0719 22.2922C39.4145 22.6348 39.5858 23.0894 39.5858 23.6559C39.5858 24.2159 39.4112 24.6672 39.062 25.0098C38.7194 25.3524 38.2649 25.5237 37.6983 25.5237H35.6427C35.6164 25.5237 35.6032 25.5369 35.6032 25.5632V28.607C35.6032 28.6729 35.5703 28.7058 35.5044 28.7058H35.1783C35.1124 28.7058 35.0794 28.6729 35.0794 28.607V21.8672C35.0794 21.8014 35.1124 21.7684 35.1783 21.7684H37.718ZM37.6785 25.079C38.0936 25.079 38.4263 24.9505 38.6766 24.6936C38.9336 24.4301 39.062 24.0875 39.062 23.6658C39.062 23.2376 38.9336 22.895 38.6766 22.6381C38.4263 22.3745 38.0936 22.2428 37.6785 22.2428H35.6427C35.6164 22.2428 35.6032 22.2559 35.6032 22.2823V25.0395C35.6032 25.0658 35.6164 25.079 35.6427 25.079H37.6785ZM44.8649 28.7058C44.8056 28.7058 44.7661 28.6795 44.7463 28.6268L44.3214 27.3124C44.3148 27.2926 44.3016 27.2828 44.2818 27.2828H41.1985C41.1788 27.2828 41.1656 27.2926 41.159 27.3124L40.744 28.6268C40.7242 28.6795 40.6847 28.7058 40.6254 28.7058H40.2795C40.207 28.7058 40.1807 28.6696 40.2004 28.5971L42.3943 21.8672C42.4141 21.8145 42.4536 21.7882 42.5129 21.7882H42.9576C43.0169 21.7882 43.0564 21.8145 43.0762 21.8672L45.2799 28.5971L45.2898 28.6366C45.2898 28.6828 45.2602 28.7058 45.2009 28.7058H44.8649ZM41.3171 26.7985C41.3105 26.8117 41.3105 26.8249 41.3171 26.838C41.3303 26.8446 41.3435 26.8479 41.3567 26.8479H44.1237C44.1369 26.8479 44.1468 26.8446 44.1534 26.838C44.1665 26.8249 44.1698 26.8117 44.1632 26.7985L42.7698 22.4997C42.7632 22.4865 42.7534 22.4799 42.7402 22.4799C42.727 22.4799 42.7171 22.4865 42.7105 22.4997L41.3171 26.7985Z" fill="white"/>
<path opacity="0.42" d="M18.5898 31.647H46.8251" stroke="white" stroke-width="0.423529"/>
<path d="M26.6717 40.7849C25.947 40.7849 25.3739 40.6235 24.9522 40.3006C24.5306 39.9712 24.3197 39.5331 24.3197 38.9863V38.6602C24.3197 38.5943 24.3527 38.5613 24.4186 38.5613H24.7249C24.7908 38.5613 24.8237 38.5943 24.8237 38.6602V38.9566C24.8237 39.3651 24.9917 39.6945 25.3277 39.9449C25.6637 40.1952 26.1249 40.3204 26.7113 40.3204C27.2581 40.3204 27.6764 40.2084 27.9663 39.9844C28.2562 39.7538 28.4012 39.4376 28.4012 39.0357C28.4012 38.7919 28.3353 38.5811 28.2035 38.4032C28.0783 38.2188 27.8807 38.0475 27.6106 37.8893C27.347 37.7312 26.9715 37.5501 26.484 37.3458C25.9701 37.1284 25.5814 36.9472 25.3179 36.8023C25.0609 36.6573 24.8534 36.4762 24.6953 36.2588C24.5372 36.0348 24.4581 35.7482 24.4581 35.399C24.4581 34.8588 24.6426 34.4437 25.0115 34.1538C25.387 33.8574 25.9042 33.7091 26.563 33.7091C27.2812 33.7091 27.8444 33.8738 28.2529 34.2032C28.6614 34.5326 28.8656 34.9741 28.8656 35.5275V35.7548C28.8656 35.8206 28.8327 35.8536 28.7668 35.8536H28.4407C28.3748 35.8536 28.3419 35.8206 28.3419 35.7548V35.5571C28.3419 35.1421 28.1837 34.8094 27.8675 34.559C27.5513 34.3021 27.1066 34.1736 26.5334 34.1736C26.0327 34.1736 25.6473 34.279 25.3772 34.4898C25.107 34.6941 24.972 34.9905 24.972 35.3792C24.972 35.6428 25.0346 35.8569 25.1597 36.0216C25.2849 36.1863 25.4628 36.3312 25.6934 36.4564C25.9306 36.575 26.2929 36.7331 26.7804 36.9308C27.268 37.1284 27.66 37.3195 27.9564 37.5039C28.2595 37.6818 28.4967 37.8926 28.668 38.1364C28.8393 38.3802 28.9249 38.6733 28.9249 39.0159C28.9249 39.5496 28.7273 39.9778 28.332 40.3006C27.9367 40.6235 27.3833 40.7849 26.6717 40.7849ZM32.5718 40.7849C32.1172 40.7849 31.7153 40.6926 31.3662 40.5082C31.0236 40.3171 30.7568 40.0536 30.5657 39.7176C30.3812 39.375 30.289 38.983 30.289 38.5416V35.9524C30.289 35.511 30.3812 35.1223 30.5657 34.7863C30.7568 34.4437 31.0236 34.1802 31.3662 33.9957C31.7153 33.8046 32.1172 33.7091 32.5718 33.7091C33.0264 33.7091 33.4283 33.8046 33.7775 33.9957C34.1266 34.1802 34.3967 34.4437 34.5878 34.7863C34.7789 35.1223 34.8744 35.511 34.8744 35.9524V38.5416C34.8744 38.983 34.7789 39.375 34.5878 39.7176C34.3967 40.0536 34.1266 40.3171 33.7775 40.5082C33.4283 40.6926 33.0264 40.7849 32.5718 40.7849ZM32.5718 40.3303C33.1055 40.3303 33.5337 40.1689 33.8565 39.846C34.1859 39.5232 34.3506 39.095 34.3506 38.5613V35.9425C34.3506 35.4155 34.1859 34.9905 33.8565 34.6677C33.5337 34.3383 33.1055 34.1736 32.5718 34.1736C32.0447 34.1736 31.6198 34.3383 31.297 34.6677C30.9742 34.9905 30.8127 35.4155 30.8127 35.9425V38.5613C30.8127 39.095 30.9742 39.5232 31.297 39.846C31.6198 40.1689 32.0447 40.3303 32.5718 40.3303ZM38.6995 40.7948C38.2515 40.7948 37.8563 40.7058 37.5137 40.5279C37.1711 40.35 36.9043 40.0997 36.7132 39.7769C36.5287 39.4475 36.4365 39.0719 36.4365 38.6503V35.8338C36.4365 35.4122 36.5287 35.0432 36.7132 34.727C36.9043 34.4042 37.1711 34.1538 37.5137 33.9759C37.8563 33.7981 38.2515 33.7091 38.6995 33.7091C39.141 33.7091 39.533 33.7981 39.8755 33.9759C40.2181 34.1472 40.4817 34.391 40.6661 34.7072C40.8572 35.0235 40.9527 35.3891 40.9527 35.8042V35.8141C40.9527 35.847 40.9428 35.8733 40.9231 35.8931C40.9033 35.9129 40.8802 35.9228 40.8539 35.9228L40.5278 35.9425C40.4619 35.9425 40.429 35.9096 40.429 35.8437V35.8141C40.429 35.3199 40.2708 34.9246 39.9546 34.6282C39.6384 34.3251 39.22 34.1736 38.6995 34.1736C38.1725 34.1736 37.7508 34.3251 37.4346 34.6282C37.1184 34.9246 36.9603 35.3199 36.9603 35.8141V38.6799C36.9603 39.174 37.1184 39.5726 37.4346 39.8757C37.7574 40.1788 38.1791 40.3303 38.6995 40.3303C39.22 40.3303 39.6384 40.1788 39.9546 39.8757C40.2708 39.5726 40.429 39.174 40.429 38.6799V38.6602C40.429 38.6009 40.4619 38.5712 40.5278 38.5712L40.8539 38.591C40.9198 38.591 40.9527 38.6206 40.9527 38.6799C40.9527 39.095 40.8572 39.4639 40.6661 39.7868C40.4817 40.103 40.2181 40.35 39.8755 40.5279C39.533 40.7058 39.141 40.7948 38.6995 40.7948Z" fill="white"/>
<path d="M23.3165 44.4955C23.4822 44.4955 23.6083 44.5388 23.6949 44.6254C23.7815 44.7101 23.8247 44.8249 23.8247 44.9699V45.9129C23.8247 45.9318 23.8153 45.9412 23.7965 45.9412H23.7033C23.6845 45.9412 23.6751 45.9318 23.6751 45.9129V45.7802C23.6751 45.7765 23.6732 45.7736 23.6695 45.7718C23.6676 45.7699 23.6647 45.7708 23.661 45.7746C23.612 45.8367 23.548 45.8838 23.469 45.9158C23.3918 45.9478 23.3052 45.9638 23.2092 45.9638C23.0793 45.9638 22.9692 45.9308 22.8789 45.8649C22.7885 45.799 22.7433 45.6983 22.7433 45.5628C22.7433 45.4235 22.7951 45.3134 22.8986 45.2325C23.0022 45.1515 23.1443 45.111 23.325 45.111H23.6638C23.6713 45.111 23.6751 45.1073 23.6751 45.0998V44.9727C23.6751 44.8673 23.645 44.7835 23.5847 44.7214C23.5264 44.6593 23.436 44.6282 23.3137 44.6282C23.2177 44.6282 23.1386 44.648 23.0765 44.6875C23.0144 44.727 22.9758 44.7798 22.9607 44.8456C22.9551 44.8645 22.9438 44.8729 22.9269 44.871L22.828 44.8569C22.8073 44.8532 22.7989 44.8456 22.8026 44.8343C22.8196 44.7327 22.8742 44.6508 22.9664 44.5887C23.0605 44.5266 23.1772 44.4955 23.3165 44.4955ZM23.2346 45.8339C23.3532 45.8339 23.4558 45.8047 23.5424 45.7463C23.6309 45.688 23.6751 45.607 23.6751 45.5035V45.2466C23.6751 45.239 23.6713 45.2353 23.6638 45.2353H23.3391C23.2055 45.2353 23.0972 45.2635 23.0144 45.32C22.9335 45.3765 22.893 45.4546 22.893 45.5543C22.893 45.6466 22.925 45.7162 22.989 45.7633C23.053 45.8103 23.1349 45.8339 23.2346 45.8339ZM24.3326 44.2329C24.2912 44.2329 24.2573 44.2198 24.2309 44.1934C24.2046 44.167 24.1914 44.1332 24.1914 44.0918C24.1914 44.0503 24.2046 44.0165 24.2309 43.9901C24.2573 43.9638 24.2912 43.9506 24.3326 43.9506C24.374 43.9506 24.4079 43.9638 24.4342 43.9901C24.4606 44.0165 24.4738 44.0503 24.4738 44.0918C24.4738 44.1332 24.4606 44.167 24.4342 44.1934C24.4079 44.2198 24.374 44.2329 24.3326 44.2329ZM24.2789 45.9383C24.2601 45.9383 24.2507 45.9289 24.2507 45.9101V44.5435C24.2507 44.5247 24.2601 44.5153 24.2789 44.5153H24.3721C24.3909 44.5153 24.4003 44.5247 24.4003 44.5435V45.9101C24.4003 45.9289 24.3909 45.9383 24.3721 45.9383H24.2789ZM25.3995 45.9638C25.2658 45.9638 25.1519 45.9289 25.0578 45.8593C24.9656 45.7896 24.9035 45.6965 24.8715 45.5798C24.847 45.4894 24.8348 45.3718 24.8348 45.2268C24.8348 45.0875 24.847 44.9708 24.8715 44.8767C24.9016 44.7619 24.9637 44.6696 25.0578 44.6C25.1519 44.5303 25.2658 44.4955 25.3995 44.4955C25.5331 44.4955 25.6479 44.5294 25.7439 44.5972C25.8418 44.6649 25.9039 44.7496 25.9303 44.8513C25.9378 44.8776 25.9435 44.904 25.9472 44.9303V44.936C25.9472 44.9492 25.9388 44.9576 25.9218 44.9614L25.8315 44.9727H25.8258C25.8127 44.9727 25.8042 44.9642 25.8004 44.9473L25.7919 44.9078C25.775 44.8287 25.7308 44.7628 25.6592 44.7101C25.5877 44.6555 25.5011 44.6282 25.3995 44.6282C25.2959 44.6282 25.2094 44.6555 25.1397 44.7101C25.0719 44.7647 25.0287 44.8372 25.0098 44.9275C24.9929 44.999 24.9844 45.0998 24.9844 45.2296C24.9844 45.3614 24.9929 45.4612 25.0098 45.5289C25.0287 45.6212 25.0719 45.6946 25.1397 45.7492C25.2094 45.8038 25.2959 45.831 25.3995 45.831C25.5011 45.831 25.5877 45.8047 25.6592 45.752C25.7327 45.6974 25.7769 45.6296 25.7919 45.5487L25.7948 45.5346C25.7985 45.5139 25.8098 45.5054 25.8287 45.5092L25.9162 45.5233C25.935 45.527 25.9435 45.5374 25.9416 45.5543L25.9303 45.6052C25.9039 45.7106 25.8418 45.7972 25.7439 45.8649C25.6479 45.9308 25.5331 45.9638 25.3995 45.9638ZM27.3523 44.871C27.3655 44.9143 27.3739 44.9633 27.3777 45.0179C27.3815 45.0706 27.3834 45.1402 27.3834 45.2268C27.3834 45.3134 27.3815 45.384 27.3777 45.4386C27.3739 45.4913 27.3664 45.5393 27.3551 45.5826C27.3269 45.6993 27.2676 45.7925 27.1772 45.8621C27.0888 45.9299 26.9786 45.9638 26.8469 45.9638C26.7641 45.9638 26.6897 45.9478 26.6238 45.9158C26.5598 45.8819 26.5081 45.8339 26.4685 45.7718C26.4648 45.768 26.461 45.767 26.4572 45.7689C26.4554 45.7689 26.4544 45.7718 26.4544 45.7774V46.4663C26.4544 46.4852 26.445 46.4946 26.4262 46.4946H26.333C26.3142 46.4946 26.3048 46.4852 26.3048 46.4663V44.5463C26.3048 44.5275 26.3142 44.5181 26.333 44.5181H26.4262C26.445 44.5181 26.4544 44.5275 26.4544 44.5463V44.6819C26.4544 44.6875 26.4554 44.6913 26.4572 44.6932C26.461 44.6932 26.4648 44.6913 26.4685 44.6875C26.5081 44.6254 26.5598 44.5783 26.6238 44.5463C26.6897 44.5125 26.7641 44.4955 26.8469 44.4955C26.9749 44.4955 27.0831 44.5294 27.1716 44.5972C27.2601 44.6649 27.3203 44.7562 27.3523 44.871ZM27.1942 45.56C27.2092 45.5261 27.2196 45.4866 27.2252 45.4414C27.2309 45.3962 27.2337 45.3256 27.2337 45.2296C27.2337 45.1318 27.2309 45.0612 27.2252 45.0179C27.2196 44.9727 27.2102 44.9313 27.197 44.8936C27.1782 44.8146 27.1358 44.7506 27.0699 44.7016C27.0041 44.6527 26.925 44.6282 26.8328 44.6282C26.7443 44.6282 26.6699 44.6536 26.6097 44.7045C26.5514 44.7534 26.5118 44.8165 26.4911 44.8936C26.4779 44.9275 26.4685 44.967 26.4629 45.0122C26.4572 45.0574 26.4544 45.1299 26.4544 45.2296C26.4544 45.3294 26.4572 45.4019 26.4629 45.447C26.4685 45.4922 26.4779 45.5336 26.4911 45.5713C26.5118 45.6485 26.5514 45.7115 26.6097 45.7605C26.6699 45.8075 26.7443 45.831 26.8328 45.831C26.9194 45.831 26.9937 45.8094 27.0558 45.7661C27.1179 45.7209 27.1603 45.6626 27.1829 45.591L27.1942 45.56ZM28.2441 44.4955C28.4098 44.4955 28.5359 44.5388 28.6225 44.6254C28.7091 44.7101 28.7523 44.8249 28.7523 44.9699V45.9129C28.7523 45.9318 28.7429 45.9412 28.7241 45.9412H28.6309C28.6121 45.9412 28.6027 45.9318 28.6027 45.9129V45.7802C28.6027 45.7765 28.6008 45.7736 28.5971 45.7718C28.5952 45.7699 28.5923 45.7708 28.5886 45.7746C28.5396 45.8367 28.4756 45.8838 28.3966 45.9158C28.3194 45.9478 28.2328 45.9638 28.1368 45.9638C28.0069 45.9638 27.8968 45.9308 27.8065 45.8649C27.7161 45.799 27.6709 45.6983 27.6709 45.5628C27.6709 45.4235 27.7227 45.3134 27.8262 45.2325C27.9298 45.1515 28.0719 45.111 28.2526 45.111H28.5914C28.5989 45.111 28.6027 45.1073 28.6027 45.0998V44.9727C28.6027 44.8673 28.5726 44.7835 28.5123 44.7214C28.454 44.6593 28.3636 44.6282 28.2413 44.6282C28.1453 44.6282 28.0662 44.648 28.0041 44.6875C27.942 44.727 27.9034 44.7798 27.8883 44.8456C27.8827 44.8645 27.8714 44.8729 27.8545 44.871L27.7556 44.8569C27.7349 44.8532 27.7265 44.8456 27.7302 44.8343C27.7472 44.7327 27.8018 44.6508 27.894 44.5887C27.9881 44.5266 28.1048 44.4955 28.2441 44.4955ZM28.1622 45.8339C28.2808 45.8339 28.3834 45.8047 28.47 45.7463C28.5585 45.688 28.6027 45.607 28.6027 45.5035V45.2466C28.6027 45.239 28.5989 45.2353 28.5914 45.2353H28.2667C28.1331 45.2353 28.0248 45.2635 27.942 45.32C27.8611 45.3765 27.8206 45.4546 27.8206 45.5543C27.8206 45.6466 27.8526 45.7162 27.9166 45.7633C27.9806 45.8103 28.0625 45.8339 28.1622 45.8339ZM29.2912 45.9299C29.2498 45.9299 29.2159 45.9167 29.1896 45.8903C29.1632 45.864 29.1501 45.8301 29.1501 45.7887C29.1501 45.7473 29.1632 45.7134 29.1896 45.687C29.2159 45.6607 29.2498 45.6475 29.2912 45.6475C29.3327 45.6475 29.3665 45.6607 29.3929 45.687C29.4192 45.7134 29.4324 45.7473 29.4324 45.7887C29.4324 45.8301 29.4192 45.864 29.3929 45.8903C29.3665 45.9167 29.3327 45.9299 29.2912 45.9299ZM30.3243 45.9638C30.1925 45.9638 30.0795 45.9289 29.9854 45.8593C29.8913 45.7896 29.8273 45.6965 29.7934 45.5798C29.7727 45.5045 29.7624 45.3868 29.7624 45.2268C29.7624 45.0668 29.7727 44.9501 29.7934 44.8767C29.8273 44.76 29.8904 44.6678 29.9826 44.6C30.0767 44.5303 30.1915 44.4955 30.3271 44.4955C30.4588 44.4955 30.5718 44.5303 30.6659 44.6C30.7619 44.6696 30.8259 44.7619 30.8579 44.8767C30.8692 44.92 30.8767 44.9689 30.8805 45.0235C30.8843 45.0762 30.8861 45.144 30.8861 45.2268C30.8861 45.3134 30.8843 45.383 30.8805 45.4358C30.8767 45.4885 30.8692 45.5365 30.8579 45.5798C30.8259 45.6965 30.7619 45.7896 30.6659 45.8593C30.5718 45.9289 30.4579 45.9638 30.3243 45.9638ZM30.3243 45.831C30.424 45.831 30.5087 45.8038 30.5784 45.7492C30.6499 45.6927 30.696 45.6193 30.7167 45.5289C30.7299 45.4781 30.7365 45.3783 30.7365 45.2296C30.7365 45.079 30.7308 44.9793 30.7195 44.9303C30.6988 44.8381 30.6527 44.7647 30.5812 44.7101C30.5115 44.6555 30.4259 44.6282 30.3243 44.6282C30.2226 44.6282 30.137 44.6555 30.0673 44.7101C29.9977 44.7647 29.9525 44.8381 29.9318 44.9303C29.9186 44.9887 29.912 45.0885 29.912 45.2296C29.912 45.3708 29.9186 45.4706 29.9318 45.5289C29.9525 45.6212 29.9977 45.6946 30.0673 45.7492C30.137 45.8038 30.2226 45.831 30.3243 45.831ZM31.8124 44.5068C31.8764 44.5068 31.931 44.5181 31.9762 44.5407C31.9912 44.5463 31.9969 44.5586 31.9931 44.5774L31.9677 44.6678C31.9621 44.6866 31.9498 44.6922 31.931 44.6847C31.8934 44.6696 31.8463 44.663 31.7898 44.6649C31.6844 44.6668 31.5969 44.7073 31.5273 44.7863C31.4595 44.8635 31.4256 44.9586 31.4256 45.0715V45.9129C31.4256 45.9318 31.4162 45.9412 31.3974 45.9412H31.3042C31.2854 45.9412 31.276 45.9318 31.276 45.9129V44.5463C31.276 44.5275 31.2854 44.5181 31.3042 44.5181H31.3974C31.4162 44.5181 31.4256 44.5275 31.4256 44.5463V44.7383C31.4256 44.744 31.4265 44.7478 31.4284 44.7496C31.4322 44.7496 31.435 44.7468 31.4369 44.7412C31.4764 44.6678 31.5273 44.6103 31.5894 44.5689C31.6534 44.5275 31.7277 44.5068 31.8124 44.5068ZM33.0903 44.5463C33.0903 44.5275 33.0997 44.5181 33.1185 44.5181H33.2117C33.2305 44.5181 33.24 44.5275 33.24 44.5463V45.9101C33.24 46.1228 33.176 46.2772 33.048 46.3732C32.92 46.4692 32.7393 46.5125 32.5058 46.503C32.487 46.5012 32.4776 46.4908 32.4776 46.472L32.4804 46.3901C32.4804 46.3713 32.4898 46.3619 32.5087 46.3619C32.7101 46.3694 32.8569 46.3355 32.9491 46.2602C33.0433 46.1868 33.0903 46.0692 33.0903 45.9073V45.7661C33.0903 45.7605 33.0884 45.7576 33.0847 45.7576C33.0828 45.7558 33.08 45.7567 33.0762 45.7605C32.9915 45.8903 32.8625 45.9553 32.6894 45.9553C32.567 45.9553 32.4597 45.9223 32.3675 45.8565C32.2753 45.7887 32.2141 45.6965 32.184 45.5798C32.1633 45.5026 32.1529 45.3868 32.1529 45.2325C32.1529 45.0668 32.1642 44.9454 32.1868 44.8682C32.2169 44.7572 32.2762 44.6678 32.3647 44.6C32.4531 44.5303 32.5595 44.4955 32.6837 44.4955C32.8569 44.4955 32.9877 44.5595 33.0762 44.6875C33.0781 44.6913 33.0809 44.6922 33.0847 44.6903C33.0884 44.6885 33.0903 44.6856 33.0903 44.6819V44.5463ZM33.0762 45.5261C33.0818 45.4979 33.0856 45.463 33.0875 45.4216C33.0894 45.3802 33.0903 45.3162 33.0903 45.2296C33.0903 45.143 33.0894 45.079 33.0875 45.0376C33.0856 44.9962 33.0818 44.9595 33.0762 44.9275C33.0611 44.8409 33.0207 44.7694 32.9548 44.7129C32.8908 44.6565 32.8098 44.6282 32.712 44.6282C32.6141 44.6282 32.5313 44.6565 32.4635 44.7129C32.3976 44.7694 32.3524 44.8409 32.328 44.9275C32.311 44.984 32.3026 45.0838 32.3026 45.2268C32.3026 45.3661 32.311 45.4659 32.328 45.5261C32.3487 45.6127 32.3929 45.6842 32.4607 45.7407C32.5303 45.7972 32.6141 45.8254 32.712 45.8254C32.8136 45.8254 32.8955 45.7972 32.9576 45.7407C33.0216 45.6842 33.0611 45.6127 33.0762 45.5261ZM33.5287 45.9412C33.508 45.9412 33.5005 45.9308 33.5061 45.9101L34.1019 43.9873C34.1076 43.9722 34.1188 43.9647 34.1358 43.9647H34.2261C34.2468 43.9647 34.2544 43.975 34.2487 43.9958L33.653 45.9186C33.6473 45.9336 33.636 45.9412 33.6191 45.9412H33.5287ZM35.0792 45.9553C34.9776 45.9553 34.8872 45.9393 34.8082 45.9073C34.731 45.8734 34.6708 45.8282 34.6275 45.7718C34.5842 45.7153 34.5625 45.6532 34.5625 45.5854V45.5487C34.5625 45.5299 34.572 45.5205 34.5908 45.5205H34.6783C34.6971 45.5205 34.7065 45.5299 34.7065 45.5487V45.5798C34.7065 45.6494 34.7414 45.7096 34.811 45.7605C34.8807 45.8094 34.9691 45.8339 35.0764 45.8339C35.1818 45.8339 35.2675 45.8085 35.3334 45.7576C35.3992 45.7068 35.4322 45.6438 35.4322 45.5685C35.4322 45.5158 35.4152 45.4725 35.3814 45.4386C35.3475 45.4047 35.307 45.3793 35.2599 45.3623C35.2148 45.3435 35.1461 45.32 35.0538 45.2918C34.9484 45.2598 34.8637 45.2296 34.7997 45.2014C34.7357 45.1732 34.6811 45.1336 34.636 45.0828C34.5927 45.0301 34.571 44.9642 34.571 44.8852C34.571 44.7703 34.6162 44.679 34.7065 44.6113C34.7988 44.5416 34.9192 44.5068 35.0679 44.5068C35.1677 44.5068 35.2552 44.5238 35.3305 44.5576C35.4077 44.5896 35.467 44.6339 35.5084 44.6903C35.5517 44.7468 35.5734 44.8108 35.5734 44.8823V44.8908C35.5734 44.9096 35.5639 44.919 35.5451 44.919H35.4576C35.4388 44.919 35.4294 44.9096 35.4294 44.8908V44.8823C35.4294 44.8108 35.3955 44.7515 35.3277 44.7045C35.2618 44.6555 35.1743 44.631 35.0651 44.631C34.9597 44.631 34.875 44.6536 34.811 44.6988C34.747 44.7421 34.715 44.8014 34.715 44.8767C34.715 44.9482 34.7442 45.0019 34.8025 45.0376C34.8628 45.0734 34.9559 45.1101 35.0821 45.1478C35.1912 45.1798 35.2778 45.2099 35.3418 45.2381C35.4077 45.2663 35.4642 45.3068 35.5112 45.3595C35.5583 45.4103 35.5818 45.4772 35.5818 45.56C35.5818 45.6786 35.5357 45.7746 35.4435 45.848C35.3531 45.9195 35.2317 45.9553 35.0792 45.9553ZM36.4389 45.9638C36.3072 45.9638 36.1942 45.9289 36.1001 45.8593C36.006 45.7896 35.942 45.6965 35.9081 45.5798C35.8874 45.5045 35.8771 45.3868 35.8771 45.2268C35.8771 45.0668 35.8874 44.9501 35.9081 44.8767C35.942 44.76 36.0051 44.6678 36.0973 44.6C36.1914 44.5303 36.3062 44.4955 36.4418 44.4955C36.5735 44.4955 36.6865 44.5303 36.7806 44.6C36.8766 44.6696 36.9406 44.7619 36.9726 44.8767C36.9839 44.92 36.9914 44.9689 36.9952 45.0235C36.9989 45.0762 37.0008 45.144 37.0008 45.2268C37.0008 45.3134 36.9989 45.383 36.9952 45.4358C36.9914 45.4885 36.9839 45.5365 36.9726 45.5798C36.9406 45.6965 36.8766 45.7896 36.7806 45.8593C36.6865 45.9289 36.5726 45.9638 36.4389 45.9638ZM36.4389 45.831C36.5387 45.831 36.6234 45.8038 36.6931 45.7492C36.7646 45.6927 36.8107 45.6193 36.8314 45.5289C36.8446 45.4781 36.8512 45.3783 36.8512 45.2296C36.8512 45.079 36.8455 44.9793 36.8342 44.9303C36.8135 44.8381 36.7674 44.7647 36.6959 44.7101C36.6262 44.6555 36.5406 44.6282 36.4389 44.6282C36.3373 44.6282 36.2517 44.6555 36.182 44.7101C36.1124 44.7647 36.0672 44.8381 36.0465 44.9303C36.0333 44.9887 36.0267 45.0885 36.0267 45.2296C36.0267 45.3708 36.0333 45.4706 36.0465 45.5289C36.0672 45.6212 36.1124 45.6946 36.182 45.7492C36.2517 45.8038 36.3373 45.831 36.4389 45.831ZM37.9074 45.9638C37.7737 45.9638 37.6598 45.9289 37.5657 45.8593C37.4735 45.7896 37.4114 45.6965 37.3794 45.5798C37.3549 45.4894 37.3427 45.3718 37.3427 45.2268C37.3427 45.0875 37.3549 44.9708 37.3794 44.8767C37.4095 44.7619 37.4716 44.6696 37.5657 44.6C37.6598 44.5303 37.7737 44.4955 37.9074 44.4955C38.041 44.4955 38.1558 44.5294 38.2518 44.5972C38.3497 44.6649 38.4118 44.7496 38.4382 44.8513C38.4457 44.8776 38.4514 44.904 38.4551 44.9303V44.936C38.4551 44.9492 38.4466 44.9576 38.4297 44.9614L38.3394 44.9727H38.3337C38.3205 44.9727 38.3121 44.9642 38.3083 44.9473L38.2998 44.9078C38.2829 44.8287 38.2386 44.7628 38.1671 44.7101C38.0956 44.6555 38.009 44.6282 37.9074 44.6282C37.8038 44.6282 37.7172 44.6555 37.6476 44.7101C37.5798 44.7647 37.5365 44.8372 37.5177 44.9275C37.5008 44.999 37.4923 45.0998 37.4923 45.2296C37.4923 45.3614 37.5008 45.4612 37.5177 45.5289C37.5365 45.6212 37.5798 45.6946 37.6476 45.7492C37.7172 45.8038 37.8038 45.831 37.9074 45.831C38.009 45.831 38.0956 45.8047 38.1671 45.752C38.2405 45.6974 38.2848 45.6296 38.2998 45.5487L38.3026 45.5346C38.3064 45.5139 38.3177 45.5054 38.3365 45.5092L38.4241 45.5233C38.4429 45.527 38.4514 45.5374 38.4495 45.5543L38.4382 45.6052C38.4118 45.7106 38.3497 45.7972 38.2518 45.8649C38.1558 45.9308 38.041 45.9638 37.9074 45.9638ZM39.8517 45.2522C39.8705 45.2522 39.8799 45.2616 39.8799 45.2805V45.3595C39.8799 45.3783 39.8705 45.3878 39.8517 45.3878H39.7331C39.7256 45.3878 39.7218 45.3915 39.7218 45.399V45.9129C39.7218 45.9318 39.7124 45.9412 39.6936 45.9412H39.6004C39.5816 45.9412 39.5722 45.9318 39.5722 45.9129V45.399C39.5722 45.3915 39.5684 45.3878 39.5609 45.3878H38.7223C38.7035 45.3878 38.6941 45.3783 38.6941 45.3595V45.2861C38.6941 45.2767 38.6969 45.2654 38.7025 45.2522L39.2983 43.9845C39.3039 43.9713 39.3143 43.9647 39.3294 43.9647H39.4254C39.4348 43.9647 39.4414 43.9685 39.4451 43.976C39.4489 43.9816 39.4489 43.9892 39.4451 43.9986L38.8635 45.2381C38.8616 45.2419 38.8616 45.2456 38.8635 45.2494C38.8654 45.2513 38.8682 45.2522 38.8719 45.2522H39.5609C39.5684 45.2522 39.5722 45.2485 39.5722 45.2409V44.7609C39.5722 44.7421 39.5816 44.7327 39.6004 44.7327H39.6936C39.7124 44.7327 39.7218 44.7421 39.7218 44.7609V45.2409C39.7218 45.2485 39.7256 45.2522 39.7331 45.2522H39.8517ZM40.6934 45.9553C40.5918 45.9553 40.5014 45.9393 40.4224 45.9073C40.3452 45.8734 40.285 45.8282 40.2417 45.7718C40.1984 45.7153 40.1767 45.6532 40.1767 45.5854V45.5487C40.1767 45.5299 40.1861 45.5205 40.205 45.5205H40.2925C40.3113 45.5205 40.3207 45.5299 40.3207 45.5487V45.5798C40.3207 45.6494 40.3555 45.7096 40.4252 45.7605C40.4948 45.8094 40.5833 45.8339 40.6906 45.8339C40.796 45.8339 40.8817 45.8085 40.9475 45.7576C41.0134 45.7068 41.0464 45.6438 41.0464 45.5685C41.0464 45.5158 41.0294 45.4725 40.9955 45.4386C40.9617 45.4047 40.9212 45.3793 40.8741 45.3623C40.829 45.3435 40.7602 45.32 40.668 45.2918C40.5626 45.2598 40.4779 45.2296 40.4139 45.2014C40.3499 45.1732 40.2953 45.1336 40.2501 45.0828C40.2068 45.0301 40.1852 44.9642 40.1852 44.8852C40.1852 44.7703 40.2304 44.679 40.3207 44.6113C40.413 44.5416 40.5334 44.5068 40.6821 44.5068C40.7819 44.5068 40.8694 44.5238 40.9447 44.5576C41.0219 44.5896 41.0812 44.6339 41.1226 44.6903C41.1659 44.7468 41.1875 44.8108 41.1875 44.8823V44.8908C41.1875 44.9096 41.1781 44.919 41.1593 44.919H41.0718C41.053 44.919 41.0435 44.9096 41.0435 44.8908V44.8823C41.0435 44.8108 41.0097 44.7515 40.9419 44.7045C40.876 44.6555 40.7885 44.631 40.6793 44.631C40.5739 44.631 40.4892 44.6536 40.4252 44.6988C40.3612 44.7421 40.3292 44.8014 40.3292 44.8767C40.3292 44.9482 40.3584 45.0019 40.4167 45.0376C40.477 45.0734 40.5701 45.1101 40.6962 45.1478C40.8054 45.1798 40.892 45.2099 40.956 45.2381C41.0219 45.2663 41.0784 45.3068 41.1254 45.3595C41.1725 45.4103 41.196 45.4772 41.196 45.56C41.196 45.6786 41.1499 45.7746 41.0577 45.848C40.9673 45.9195 40.8459 45.9553 40.6934 45.9553ZM42.0531 45.9638C41.9214 45.9638 41.8084 45.9289 41.7143 45.8593C41.6202 45.7896 41.5562 45.6965 41.5223 45.5798C41.5016 45.5045 41.4912 45.3868 41.4912 45.2268C41.4912 45.0668 41.5016 44.9501 41.5223 44.8767C41.5562 44.76 41.6192 44.6678 41.7115 44.6C41.8056 44.5303 41.9204 44.4955 42.0559 44.4955C42.1877 44.4955 42.3007 44.5303 42.3948 44.6C42.4908 44.6696 42.5548 44.7619 42.5868 44.8767C42.5981 44.92 42.6056 44.9689 42.6094 45.0235C42.6131 45.0762 42.615 45.144 42.615 45.2268C42.615 45.3134 42.6131 45.383 42.6094 45.4358C42.6056 45.4885 42.5981 45.5365 42.5868 45.5798C42.5548 45.6965 42.4908 45.7896 42.3948 45.8593C42.3007 45.9289 42.1868 45.9638 42.0531 45.9638ZM42.0531 45.831C42.1529 45.831 42.2376 45.8038 42.3072 45.7492C42.3788 45.6927 42.4249 45.6193 42.4456 45.5289C42.4588 45.4781 42.4654 45.3783 42.4654 45.2296C42.4654 45.079 42.4597 44.9793 42.4484 44.9303C42.4277 44.8381 42.3816 44.7647 42.3101 44.7101C42.2404 44.6555 42.1548 44.6282 42.0531 44.6282C41.9515 44.6282 41.8658 44.6555 41.7962 44.7101C41.7265 44.7647 41.6814 44.8381 41.6607 44.9303C41.6475 44.9887 41.6409 45.0885 41.6409 45.2296C41.6409 45.3708 41.6475 45.4706 41.6607 45.5289C41.6814 45.6212 41.7265 45.6946 41.7962 45.7492C41.8658 45.8038 41.9515 45.831 42.0531 45.831Z" fill="white"/>
<rect width="64" height="40" transform="translate(0 64)" fill="white"/>
<path d="M16.2987 84.112C14.3667 84.112 12.7567 82.81 12.5187 81.032L14.2127 80.514C14.3667 81.69 15.2767 82.488 16.3687 82.488C17.3907 82.488 18.0627 81.998 18.0627 81.256C18.0627 79.142 12.8687 80.332 12.8687 76.776C12.8687 75.208 14.3387 74.088 16.2707 74.088C18.1327 74.088 19.6027 75.082 19.9107 76.566L18.2027 77.266C18.0067 76.314 17.2927 75.712 16.2707 75.712C15.3327 75.712 14.7587 76.118 14.7587 76.776C14.7587 78.554 19.9947 77.238 19.9947 81.214C19.9947 82.95 18.5107 84.112 16.2987 84.112ZM25.6062 84.112C22.7362 84.112 20.6362 81.998 20.6362 79.1C20.6362 76.202 22.7362 74.088 25.6062 74.088C28.4622 74.088 30.5622 76.202 30.5622 79.1C30.5622 81.998 28.4622 84.112 25.6062 84.112ZM22.5542 79.1C22.5542 81.046 23.8282 82.46 25.6062 82.46C27.3842 82.46 28.6442 81.046 28.6442 79.1C28.6442 77.154 27.3842 75.726 25.6062 75.726C23.8282 75.726 22.5542 77.154 22.5542 79.1ZM36.1384 84.112C33.5484 84.112 31.2664 82.418 31.2664 79.1C31.2664 75.782 33.5904 74.088 36.1384 74.088C38.4904 74.088 40.1564 75.376 40.4924 77.35L38.6024 77.742C38.3504 76.496 37.3984 75.726 36.1384 75.726C34.4864 75.726 33.1984 76.902 33.1984 79.1C33.1984 81.298 34.4724 82.46 36.1384 82.46C37.4124 82.46 38.2944 81.76 38.5464 80.612L40.4644 81.032C39.9884 82.95 38.3924 84.112 36.1384 84.112ZM44.2122 84L44.1982 82.46L47.6842 79.52C48.7482 78.624 49.2102 77.924 49.2102 77.182C49.2102 76.3 48.6082 75.726 47.6842 75.726C46.5922 75.726 45.9622 76.58 46.0742 77.868L44.2682 77.742C44.0722 75.656 45.6122 74.088 47.6842 74.088C49.7562 74.088 51.1282 75.348 51.1282 77.182C51.1282 78.414 50.4142 79.506 48.8042 80.78L46.8722 82.348H51.1142V84H44.2122Z" fill="#001F1F"/>
<path d="M21.0328 95V90.919H19.5558V90.1H23.4618V90.919H21.9848V95H21.0328ZM25.8198 95V92.97L24.1398 90.1H25.1618L26.2958 92.074L27.4368 90.1H28.4588L26.7718 92.97V95H25.8198ZM29.3726 95V90.1H31.3466C32.3406 90.1 32.9776 90.688 32.9776 91.598C32.9776 92.501 32.3406 93.089 31.3466 93.089H30.3246V95H29.3726ZM30.3246 92.27H31.2626C31.7386 92.27 32.0256 92.018 32.0256 91.598C32.0256 91.171 31.7386 90.919 31.2626 90.919H30.3246V92.27ZM34.1365 95V90.1H37.4125V90.919H35.0885V91.997H36.9505V92.823H35.0885V94.174H37.4895V95H34.1365ZM40.7397 95L40.7327 94.23L42.4757 92.76C43.0077 92.312 43.2387 91.962 43.2387 91.591C43.2387 91.15 42.9377 90.863 42.4757 90.863C41.9297 90.863 41.6147 91.29 41.6707 91.934L40.7677 91.871C40.6697 90.828 41.4397 90.044 42.4757 90.044C43.5117 90.044 44.1977 90.674 44.1977 91.591C44.1977 92.207 43.8407 92.753 43.0357 93.39L42.0697 94.174H44.1907V95H40.7397Z" fill="#6A7878"/>
</g>
<defs>
<linearGradient id="paint0_linear_529_734" x1="50.3529" y1="31.9999" x2="13.6471" y2="31.9999" gradientUnits="userSpaceOnUse">
<stop stop-color="#22BEEF"/>
<stop offset="1" stop-color="#2263AF"/>
</linearGradient>
<linearGradient id="paint1_linear_529_734" x1="56" y1="55.9998" x2="8.00001" y2="55.9998" gradientUnits="userSpaceOnUse">
<stop stop-color="#2263AF"/>
<stop offset="1" stop-color="#22BEEF"/>
</linearGradient>
<clipPath id="clip0_529_734">
<rect width="64" height="104" fill="white"/>
</clipPath>
</defs>
</svg>
